<svg width="1600" height="200" viewBox="0 0 1600 200" fill="none" xmlns="http://www.w3.org/2000/svg">
<g clip-path="url(#clip0_22_39)">

<path d="M54 0H156.488C125.742 40 125.742 60 156.488 100C187.235 140 187.235 160 156.488 200H54V0Z" fill="#0B0B0B"/>
<path d="M156.488 0H258.976V200H156.488C187.235 160 187.235 140 156.488 100C125.742 60 125.742 40 156.488 0Z" fill="#FFC800"/>
<path d="M358.632 198.168C343.848 198.168 329.68 196.232 316.128 192.36C302.576 188.312 291.664 183.12 283.392 176.784L297.912 144.576C305.832 150.208 315.16 154.872 325.896 158.568C336.808 162.088 347.808 163.848 358.896 163.848C367.344 163.848 374.12 163.056 379.224 161.472C384.504 159.712 388.376 157.336 390.84 154.344C393.304 151.352 394.536 147.92 394.536 144.048C394.536 139.12 392.6 135.248 388.728 132.432C384.856 129.44 379.752 127.064 373.416 125.304C367.08 123.368 360.04 121.608 352.296 120.024C344.728 118.264 337.072 116.152 329.328 113.688C321.76 111.224 314.808 108.056 308.472 104.184C302.136 100.312 296.944 95.208 292.896 88.872C289.024 82.536 287.088 74.44 287.088 64.584C287.088 54.024 289.904 44.432 295.536 35.808C301.344 27.008 309.968 20.056 321.408 14.952C333.024 9.67199 347.544 7.032 364.968 7.032C376.584 7.032 388.024 8.43999 399.288 11.256C410.552 13.896 420.496 17.944 429.12 23.4L415.92 55.872C407.296 50.944 398.672 47.336 390.048 45.048C381.424 42.584 372.976 41.352 364.704 41.352C356.432 41.352 349.656 42.32 344.376 44.256C339.096 46.192 335.312 48.744 333.024 51.912C330.736 54.904 329.592 58.424 329.592 62.472C329.592 67.224 331.528 71.096 335.4 74.088C339.272 76.904 344.376 79.192 350.712 80.952C357.048 82.712 364 84.472 371.568 86.232C379.312 87.992 386.968 90.016 394.536 92.304C402.28 94.592 409.32 97.672 415.656 101.544C421.992 105.416 427.096 110.52 430.968 116.856C435.016 123.192 437.04 131.2 437.04 140.88C437.04 151.264 434.136 160.768 428.328 169.392C422.52 178.016 413.808 184.968 402.192 190.248C390.752 195.528 376.232 198.168 358.632 198.168ZM556.024 198.168C541.416 198.168 527.864 195.792 515.368 191.04C503.048 186.288 492.312 179.6 483.16 170.976C474.184 162.352 467.144 152.232 462.04 140.616C457.112 129 454.648 116.328 454.648 102.6C454.648 88.872 457.112 76.2 462.04 64.584C467.144 52.968 474.272 42.848 483.424 34.224C492.576 25.6 503.312 18.912 515.632 14.16C527.952 9.40799 541.328 7.032 555.76 7.032C570.368 7.032 583.744 9.40799 595.888 14.16C608.208 18.912 618.856 25.6 627.832 34.224C636.984 42.848 644.112 52.968 649.216 64.584C654.32 76.024 656.872 88.696 656.872 102.6C656.872 116.328 654.32 129.088 649.216 140.88C644.112 152.496 636.984 162.616 627.832 171.24C618.856 179.688 608.208 186.288 595.888 191.04C583.744 195.792 570.456 198.168 556.024 198.168ZM555.76 161.736C564.032 161.736 571.6 160.328 578.464 157.512C585.504 154.696 591.664 150.648 596.944 145.368C602.224 140.088 606.272 133.84 609.088 126.624C612.08 119.408 613.576 111.4 613.576 102.6C613.576 93.8 612.08 85.792 609.088 78.576C606.272 71.36 602.224 65.112 596.944 59.832C591.84 54.552 585.768 50.504 578.728 47.688C571.688 44.872 564.032 43.464 555.76 43.464C547.488 43.464 539.832 44.872 532.792 47.688C525.928 50.504 519.856 54.552 514.576 59.832C509.296 65.112 505.16 71.36 502.168 78.576C499.352 85.792 497.944 93.8 497.944 102.6C497.944 111.224 499.352 119.232 502.168 126.624C505.16 133.84 509.208 140.088 514.312 145.368C519.592 150.648 525.752 154.696 532.792 157.512C539.832 160.328 547.488 161.736 555.76 161.736ZM689.014 195V10.2H731.782V160.152H824.446V195H689.014ZM848.342 195V10.2H891.11V195H848.342ZM934.967 195V10.2H970.343L1049.01 140.616H1030.27L1107.62 10.2H1142.73L1143.26 195H1103.13L1102.87 71.712H1110.26L1048.49 175.464H1029.21L966.119 71.712H975.095V195H934.967ZM1162.82 195L1245.19 10.2H1287.43L1370.06 195H1325.18L1257.6 31.848H1274.49L1206.64 195H1162.82ZM1204 155.4L1215.36 122.928H1310.4L1322.01 155.4H1204ZM1358.32 195L1437.78 85.44V116.592L1361.75 10.2H1410.32L1462.86 84.384L1442.53 84.648L1494.28 10.2H1540.74L1465.24 114.744V84.12L1545.23 195H1495.86L1441.48 116.592H1461.01L1407.42 195H1358.32Z" fill="#0B0B0B"/>
</g>
<defs>
<clipPath id="clip0_22_39">

</clipPath>
</defs>
</svg>
